<svg xmlns="http://www.w3.org/2000/svg" viewBox="0 0 49.652 49.652">
  <path fill="#005CFF" d="M20.894 20.686c0-1.9-1.293-1.9-1.293-1.9h-5.32v4.078h4.99c.865 0 1.625-.275 1.625-2.178zm12.326 2.178c-2.82 0-3.214 2.814-3.214 2.814h6.002c0 .002.037-2.814-2.787-2.814zM19.6 25.68h-5.317v4.886h4.71c.08 0 .2.004.34 0 .757-.02 2.196-.235 2.196-2.374 0-2.536-1.93-2.512-1.93-2.512z"/>
  <path fill="#005CFF" d="M24.826 0C11.136 0 0 11.137 0 24.826c0 13.688 11.137 24.826 24.826 24.826 13.688 0 24.826-11.138 24.826-24.826C49.652 11.136 38.516 0 24.826 0zm4.393 16.615h7.537v2.25h-7.54v-2.25zM25.405 28.42c0 5.576-5.806 5.394-5.806 5.394h-9.507V15.54H19.6c2.892 0 5.173 1.596 5.173 4.866 0 3.27-2.788 3.477-2.788 3.477 3.675 0 3.422 4.536 3.422 4.536zm14.105-.3h-9.47c0 3.395 3.217 3.18 3.217 3.18 3.036 0 2.93-1.965 2.93-1.965h3.22c0 5.218-6.255 4.86-6.255 4.86-7.503 0-7.02-6.986-7.02-6.986s-.008-7.024 7.02-7.024c7.396 0 6.357 7.932 6.36 7.932z"/>
</svg>
