<svg xmlns="http://www.w3.org/2000/svg" viewBox="0 0 910.812 910.812"><path d="M122.483 50v810.812c0 27.613 22.386 50 50 50h383.655v-152.11H223.57c-8.284 0-15-6.716-15-15 0-8.284 6.716-15 15-15h333.404c4.744-28.376 29.462-50.075 59.164-50.075H788.32V50c0-27.614-22.385-50-50-50H172.484c-27.615 0-50 22.386-50 50zm392.174 44.062l42.478 151.9c9.694 34.165 16.62 63.714 26.777 98.34h1.848c10.156-34.626 17.082-64.175 26.316-98.34l42.016-151.9h54.94L615.31 396.014h-63.253l-94.19-301.952h56.79zm-156.048-5.54c36.473 0 66.945 18.006 85.875 38.32l-30.01 33.244c-15.237-15.236-32.32-24.932-55.405-24.932-49.863 0-84.952 41.553-84.952 109.423 0 68.794 32.32 110.347 83.106 110.347 26.777 0 46.17-11.08 63.253-30.01l30.01 32.78c-24.47 28.164-56.327 43.862-94.187 43.862-77.104 0-137.125-55.404-137.125-155.593 0-98.805 61.868-157.44 139.434-157.44zM223.57 471.627h463.664c8.284 0 15 6.717 15 15s-6.716 15-15 15H223.57c-8.284 0-15-6.717-15-15s6.715-15 15-15zm0 133.082h463.664c8.284 0 15 6.715 15 15 0 8.283-6.716 15-15 15H223.57c-8.284 0-15-6.717-15-15 0-8.285 6.715-15 15-15z"/><path d="M783.624 708.627H616.14c-16.57 0-30 13.432-30 30v172.186l202.19-202.186h-4.706z"/></svg>