<svg xmlns="http://www.w3.org/2000/svg" viewBox="0 0 64 64">
  <path d="M29 28.6c-.8 1-1.2 2.3-1.2 4 0 2.7 1 4 3 4 2.2 0 3.4-1.6 3.6-5l.2-4c-.7-.3-1.6-.4-2.4-.4-1.4 0-2.5.5-3.2 1.4zM32 0C14.3 0 0 14.3 0 32s14.3 32 32 32 32-14.3 32-32S49.7 0 32 0zm11.3 34.6c-.4 1.3-1 2.2-2 3-.8.6-1.7 1-2.8 1-1 0-1.7-.3-2.3-1-.6-.4-1-1-1-2H35c-.4 1-1 1.7-1.8 2.2-.8.5-1.7.8-2.8.8-1.5 0-2.7-.6-3.6-1.7-1-1-1.3-3-1.3-4.8 0-2.2.6-4 1.8-5.3 1.2-1.3 3-2 5-2 .6 0 1.4 0 2.3.2 1 0 1.7.3 2.4.5l-.4 7.4v.4c0 2 .7 2.8 2 2.8 1 0 1.8-.5 2.4-1.7.6-1.2 1-2.7 1-4.5 0-2-.5-3.4-1.3-5-.7-1-1.7-2-3.3-3-1.4-1-3-1.2-5-1.2-2.2 0-4.2.5-6 1.5-1.7 1-3 2.4-4 4.2-.8 1.8-1.2 4-1.2 6.2 0 3 .8 5.5 2.5 7.2 1.7 1.5 4 2.3 7.2 2.3 2 0 4-.5 6.4-1.4v2c-2 1-4.3 1.4-7 1.4-3.6 0-6.6-1-8.7-3s-3-5.2-3-9c0-2.7.5-5 1.6-7.3 1-2 2.7-3.7 4.7-5 2-1 4.6-1.6 7-1.6 2.5 0 4.5.5 6 1.4 2 1 3.3 2 4.3 4 1 1.6 1.4 4 1.4 6 0 1.4-.3 3-.8 4z"/>
</svg>
