<svg width="395" height="100" viewBox="0 0 395 100" fill="none" xmlns="http://www.w3.org/2000/svg">
<path d="M113.242 80V62.9375H117.262C119.113 62.9375 120.578 63.5312 121.656 64.7188C122.734 65.8984 123.289 67.5273 123.32 69.6055V73.1797C123.32 75.3203 122.773 76.9922 121.68 78.1953C120.594 79.3984 119.066 80 117.098 80H113.242ZM114.578 64.2031V78.7578H117.168C118.691 78.7578 119.871 78.2891 120.707 77.3516C121.543 76.4063 121.973 75.0586 121.996 73.3086V69.7344C121.996 67.9844 121.586 66.625 120.766 65.6562C119.953 64.6875 118.773 64.2031 117.227 64.2031H114.578Z" fill="#fff"/>
<path d="M134.887 71.832H128.266V78.7578H135.883V80H126.93V62.9375H135.824V64.2031H128.266V70.5898H134.887V71.832Z" fill="#fff"/>
<path d="M146.875 75.8047C146.875 74.8516 146.602 74.1016 146.055 73.5547C145.516 73.0078 144.504 72.4844 143.02 71.9844C141.535 71.4844 140.445 70.9258 139.75 70.3086C138.836 69.5039 138.379 68.4414 138.379 67.1211C138.379 65.8164 138.828 64.7539 139.727 63.9336C140.625 63.1133 141.785 62.7031 143.207 62.7031C144.66 62.7031 145.848 63.1797 146.77 64.1328C147.691 65.0859 148.152 66.3125 148.152 67.8125H146.805C146.805 66.6641 146.48 65.7383 145.832 65.0352C145.191 64.3242 144.316 63.9688 143.207 63.9688C142.129 63.9688 141.277 64.2617 140.652 64.8477C140.035 65.4258 139.727 66.1758 139.727 67.0977C139.727 67.957 140.02 68.6602 140.605 69.207C141.191 69.7539 142.125 70.2422 143.406 70.6719C144.687 71.0938 145.656 71.5352 146.312 71.9961C146.969 72.4492 147.453 72.9844 147.766 73.6016C148.078 74.2187 148.234 74.9453 148.234 75.7812C148.234 77.1172 147.781 78.1953 146.875 79.0156C145.977 79.8281 144.785 80.2344 143.301 80.2344C142.301 80.2344 141.387 80.0312 140.559 79.625C139.738 79.2109 139.094 78.6211 138.625 77.8555C138.164 77.082 137.934 76.1719 137.934 75.125H139.27C139.27 76.3281 139.633 77.2734 140.359 77.9609C141.086 78.6484 142.066 78.9922 143.301 78.9922C144.379 78.9922 145.242 78.7031 145.891 78.125C146.547 77.5469 146.875 76.7734 146.875 75.8047Z" fill="#fff"/>
<path d="M159.238 71.832H152.617V78.7578H160.234V80H151.281V62.9375H160.176V64.2031H152.617V70.5898H159.238V71.832Z" fill="#fff"/>
<path d="M173.945 80H172.609L164.559 65.4688V80H163.211V62.9375H164.559L172.621 77.4922V62.9375H173.945V80Z" fill="#fff"/>
<path d="M182.43 77.8672L182.465 78.0547L182.512 77.8672L186.965 62.9375H188.441L183.109 80H181.844L176.512 62.9375H177.977L182.43 77.8672Z" fill="#fff"/>
<path d="M201.402 73.3203C201.402 75.5234 200.918 77.2266 199.949 78.4297C198.988 79.6328 197.637 80.2344 195.895 80.2344C194.168 80.2344 192.812 79.6328 191.828 78.4297C190.852 77.2266 190.359 75.5352 190.352 73.3555V69.6406C190.352 67.4453 190.84 65.7422 191.816 64.5312C192.793 63.3125 194.145 62.7031 195.871 62.7031C197.621 62.7031 198.98 63.3125 199.949 64.5312C200.918 65.75 201.402 67.4648 201.402 69.6758V73.3203ZM200.055 69.6172C200.055 67.75 199.695 66.3477 198.977 65.4102C198.258 64.4727 197.223 64.0039 195.871 64.0039C194.566 64.0039 193.547 64.4648 192.812 65.3867C192.078 66.3008 191.703 67.6719 191.688 69.5V73.3203C191.688 75.1953 192.059 76.6055 192.801 77.5508C193.543 78.4883 194.574 78.957 195.895 78.957C197.254 78.957 198.285 78.4883 198.988 77.5508C199.699 76.6133 200.055 75.2031 200.055 73.3203V69.6172Z" fill="#fff"/>
<path d="M206.324 78.7578H213.355V80H204.977V62.9375H206.324V78.7578Z" fill="#fff"/>
<path d="M218.477 77.8672L218.512 78.0547L218.559 77.8672L223.012 62.9375H224.488L219.156 80H217.891L212.559 62.9375H214.023L218.477 77.8672Z" fill="#fff"/>
<path d="M234.988 71.832H228.367V78.7578H235.984V80H227.031V62.9375H235.926V64.2031H228.367V70.5898H234.988V71.832Z" fill="#fff"/>
<path d="M238.961 80V62.9375H242.98C244.832 62.9375 246.297 63.5312 247.375 64.7188C248.453 65.8984 249.008 67.5273 249.039 69.6055V73.1797C249.039 75.3203 248.492 76.9922 247.398 78.1953C246.312 79.3984 244.785 80 242.816 80H238.961ZM240.297 64.2031V78.7578H242.887C244.41 78.7578 245.59 78.2891 246.426 77.3516C247.262 76.4063 247.691 75.0586 247.715 73.3086V69.7344C247.715 67.9844 247.305 66.625 246.484 65.6562C245.672 64.6875 244.492 64.2031 242.945 64.2031H240.297Z" fill="#fff"/>
<path d="M263.23 73.3203C263.23 75.5234 262.746 77.2266 261.777 78.4297C260.816 79.6328 259.465 80.2344 257.723 80.2344C255.996 80.2344 254.641 79.6328 253.656 78.4297C252.68 77.2266 252.188 75.5352 252.18 73.3555V69.6406C252.18 67.4453 252.668 65.7422 253.645 64.5312C254.621 63.3125 255.973 62.7031 257.699 62.7031C259.449 62.7031 260.809 63.3125 261.777 64.5312C262.746 65.75 263.23 67.4648 263.23 69.6758V73.3203ZM261.883 69.6172C261.883 67.75 261.523 66.3477 260.805 65.4102C260.086 64.4727 259.051 64.0039 257.699 64.0039C256.395 64.0039 255.375 64.4648 254.641 65.3867C253.906 66.3008 253.531 67.6719 253.516 69.5V73.3203C253.516 75.1953 253.887 76.6055 254.629 77.5508C255.371 78.4883 256.402 78.957 257.723 78.957C259.082 78.957 260.113 78.4883 260.816 77.5508C261.527 76.6133 261.883 75.2031 261.883 73.3203V69.6172Z" fill="#fff"/>
<path d="M272.113 72.8984H268.129V80H266.781V62.9375H271.457C273.012 62.9375 274.215 63.3828 275.066 64.2734C275.926 65.1563 276.355 66.3867 276.355 67.9648C276.355 69.0664 276.09 70.0352 275.559 70.8711C275.027 71.6992 274.313 72.2734 273.414 72.5938L276.965 79.8477V80H275.535L272.113 72.8984ZM268.129 71.6562H271.691C272.699 71.6562 273.504 71.3125 274.105 70.625C274.707 69.9297 275.008 69.043 275.008 67.9648C275.008 66.7695 274.695 65.8438 274.07 65.1875C273.445 64.5312 272.57 64.2031 271.445 64.2031H268.129V71.6562Z" fill="#fff"/>
<path d="M293.289 72.0547H286.727V80H285.391V62.9375H294.273V64.2031H286.727V70.7891H293.289V72.0547Z" fill="#fff"/>
<path d="M302.465 72.8984H298.48V80H297.133V62.9375H301.809C303.363 62.9375 304.566 63.3828 305.418 64.2734C306.277 65.1563 306.707 66.3867 306.707 67.9648C306.707 69.0664 306.441 70.0352 305.91 70.8711C305.379 71.6992 304.664 72.2734 303.766 72.5938L307.316 79.8477V80H305.887L302.465 72.8984ZM298.48 71.6562H302.043C303.051 71.6562 303.855 71.3125 304.457 70.625C305.059 69.9297 305.359 69.043 305.359 67.9648C305.359 66.7695 305.047 65.8438 304.422 65.1875C303.797 64.5312 302.922 64.2031 301.797 64.2031H298.48V71.6562Z" fill="#fff"/>
<path d="M320.934 73.3203C320.934 75.5234 320.449 77.2266 319.48 78.4297C318.52 79.6328 317.168 80.2344 315.426 80.2344C313.699 80.2344 312.344 79.6328 311.359 78.4297C310.383 77.2266 309.891 75.5352 309.883 73.3555V69.6406C309.883 67.4453 310.371 65.7422 311.348 64.5312C312.324 63.3125 313.676 62.7031 315.402 62.7031C317.152 62.7031 318.512 63.3125 319.48 64.5312C320.449 65.75 320.934 67.4648 320.934 69.6758V73.3203ZM319.586 69.6172C319.586 67.75 319.227 66.3477 318.508 65.4102C317.789 64.4727 316.754 64.0039 315.402 64.0039C314.098 64.0039 313.078 64.4648 312.344 65.3867C311.609 66.3008 311.234 67.6719 311.219 69.5V73.3203C311.219 75.1953 311.59 76.6055 312.332 77.5508C313.074 78.4883 314.105 78.957 315.426 78.957C316.785 78.957 317.816 78.4883 318.52 77.5508C319.23 76.6133 319.586 75.2031 319.586 73.3203V69.6172Z" fill="#fff"/>
<path d="M335.242 80H333.906L325.855 65.4688V80H324.508V62.9375H325.855L333.918 77.4922V62.9375H335.242V80Z" fill="#fff"/>
<path d="M348.707 64.2031H343.855V80H342.508V64.2031H337.668V62.9375H348.707V64.2031Z" fill="#fff"/>
<path d="M364.34 71.832H357.719V78.7578H365.336V80H356.383V62.9375H365.277V64.2031H357.719V70.5898H364.34V71.832Z" fill="#fff"/>
<path d="M379.047 80H377.711L369.66 65.4688V80H368.312V62.9375H369.66L377.723 77.4922V62.9375H379.047V80Z" fill="#fff"/>
<path d="M383.102 80V62.9375H387.121C388.973 62.9375 390.438 63.5312 391.516 64.7188C392.594 65.8984 393.148 67.5273 393.18 69.6055V73.1797C393.18 75.3203 392.633 76.9922 391.539 78.1953C390.453 79.3984 388.926 80 386.957 80H383.102ZM384.438 64.2031V78.7578H387.027C388.551 78.7578 389.73 78.2891 390.566 77.3516C391.402 76.4063 391.832 75.0586 391.855 73.3086V69.7344C391.855 67.9844 391.445 66.625 390.625 65.6562C389.813 64.6875 388.633 64.2031 387.086 64.2031H384.438Z" fill="#fff"/>
<path d="M112.912 57V21.4531H123.898C127.609 21.4531 130.425 22.2832 132.346 23.9434C134.283 25.5872 135.251 28.0042 135.251 31.1943C135.251 33.001 134.852 34.5553 134.055 35.8574C133.257 37.1595 132.167 38.1117 130.783 38.7139C132.378 39.1696 133.607 40.0892 134.47 41.4727C135.332 42.8398 135.764 44.5326 135.764 46.5508C135.764 50.0013 134.812 52.6055 132.907 54.3633C131.019 56.1211 128.277 57 124.68 57H112.912ZM120.09 41.5459V51.043H124.68C125.965 51.043 126.942 50.6442 127.609 49.8467C128.277 49.0492 128.61 47.918 128.61 46.4531C128.61 43.263 127.455 41.6273 125.144 41.5459H120.09ZM120.09 36.3213H123.825C126.641 36.3213 128.049 34.8646 128.049 31.9512C128.049 30.3398 127.723 29.1842 127.072 28.4844C126.421 27.7845 125.363 27.4346 123.898 27.4346H120.09V36.3213Z" fill="#fff"/>
<path d="M151.755 44.0117H148.19V57H141.013V21.4531H152.463C156.06 21.4531 158.835 22.389 160.788 24.2607C162.757 26.1162 163.742 28.7611 163.742 32.1953C163.742 36.9154 162.025 40.2194 158.591 42.1074L164.816 56.6582V57H157.102L151.755 44.0117ZM148.19 38.0303H152.268C153.7 38.0303 154.774 37.5583 155.49 36.6143C156.206 35.654 156.564 34.3763 156.564 32.7812C156.564 29.2168 155.173 27.4346 152.39 27.4346H148.19V38.0303Z" fill="#fff"/>
<path d="M191.794 21.4531V46.0625C191.761 49.7572 190.744 52.5892 188.742 54.5586C186.74 56.5117 183.868 57.4883 180.124 57.4883C176.315 57.4883 173.402 56.4954 171.384 54.5098C169.382 52.5241 168.381 49.6514 168.381 45.8916V21.4531H175.607V45.916C175.607 47.9342 175.933 49.3747 176.584 50.2373C177.235 51.0999 178.415 51.5312 180.124 51.5312C181.833 51.5312 183.005 51.1081 183.64 50.2617C184.274 49.3991 184.6 47.9912 184.616 46.0381V21.4531H191.794Z" fill="#fff"/>
<path d="M222.092 57H214.914L204.416 33.6846V57H197.238V21.4531H204.416L214.938 44.793V21.4531H222.092V57Z" fill="#fff"/>
<path d="M252.878 42.4248C252.878 47.1937 251.747 50.8965 249.484 53.5332C247.238 56.1699 244.113 57.4883 240.109 57.4883C236.122 57.4883 232.989 56.1862 230.71 53.582C228.431 50.9616 227.276 47.2995 227.243 42.5957V36.5166C227.243 31.6338 228.374 27.8252 230.637 25.0908C232.899 22.3402 236.04 20.9648 240.061 20.9648C244.016 20.9648 247.132 22.3158 249.411 25.0176C251.69 27.7031 252.845 31.4792 252.878 36.3457V42.4248ZM245.676 36.4678C245.676 33.2614 245.22 30.877 244.309 29.3145C243.397 27.752 241.981 26.9707 240.061 26.9707C238.156 26.9707 236.748 27.7275 235.837 29.2412C234.925 30.7386 234.453 33.0254 234.421 36.1016V42.4248C234.421 45.5335 234.885 47.8285 235.812 49.3096C236.74 50.7744 238.173 51.5068 240.109 51.5068C241.981 51.5068 243.373 50.7907 244.284 49.3584C245.196 47.9098 245.66 45.6719 245.676 42.6445V36.4678Z" fill="#fff"/>
<path d="M286.521 49.7246H276.73L274.826 57H267.233L278.342 21.4531H284.909L296.091 57H288.425L286.521 49.7246ZM278.293 43.7432H284.934L281.613 31.0723L278.293 43.7432Z" fill="#fff"/>
<path d="M306.613 51.043H319.211V57H299.436V21.4531H306.613V51.043Z" fill="#fff"/>
<path d="M329.904 47.2344L335.886 21.4531H343.894L333.64 57H326.169L315.988 21.4531H323.947L329.904 47.2344Z" fill="#fff"/>
<path d="M365.598 41.6191H354.416V51.043H367.648V57H347.238V21.4531H367.6V27.4346H354.416V35.833H365.598V41.6191Z" fill="#fff"/>
<path d="M386.813 47.6738C386.813 46.2253 386.439 45.1348 385.69 44.4023C384.958 43.6536 383.615 42.8805 381.662 42.083C378.098 40.7321 375.534 39.1533 373.972 37.3467C372.409 35.5238 371.628 33.3753 371.628 30.9014C371.628 27.9066 372.686 25.5059 374.802 23.6992C376.934 21.8763 379.636 20.9648 382.907 20.9648C385.088 20.9648 387.033 21.4287 388.742 22.3564C390.451 23.2679 391.761 24.5618 392.673 26.2383C393.601 27.9147 394.064 29.819 394.064 31.9512H386.911C386.911 30.291 386.553 29.0296 385.837 28.167C385.137 27.2881 384.12 26.8486 382.785 26.8486C381.532 26.8486 380.555 27.223 379.855 27.9717C379.156 28.7041 378.806 29.6969 378.806 30.9502C378.806 31.9268 379.196 32.8138 379.978 33.6113C380.759 34.3926 382.142 35.2064 384.128 36.0527C387.595 37.306 390.109 38.8441 391.672 40.667C393.251 42.4899 394.04 44.8092 394.04 47.625C394.04 50.7174 393.055 53.1344 391.086 54.876C389.117 56.6175 386.439 57.4883 383.054 57.4883C380.759 57.4883 378.667 57.0163 376.779 56.0723C374.891 55.1283 373.41 53.7773 372.336 52.0195C371.278 50.2617 370.749 48.1865 370.749 45.7939H377.951C377.951 47.8447 378.35 49.334 379.147 50.2617C379.945 51.1895 381.247 51.6533 383.054 51.6533C385.56 51.6533 386.813 50.3268 386.813 47.6738Z" fill="#fff"/>
<path d="M0 -8.00461e-06H100V100H0V-8.00461e-06Z" fill="#FF4B39"/>
<path d="M75.541 77.3771C74.8853 81.3115 73.5738 84.1967 71.2131 86.164C68.7869 88.1312 64.6558 89.7049 58.5574 90.7541L60 81.4426C62.7541 81.1148 64.5902 80.459 65.6394 79.3443C66.6885 78.3607 67.3443 76.8525 67.6066 74.7541L69.5738 62.623V62.2295C69.9672 59.8033 70.8853 57.9017 72.459 56.6558C73.9672 55.3443 76 54.6885 78.3607 54.6885V54.2295C73.7705 52.5902 71.6066 49.1804 72.2623 44L73.9672 32C74.2951 30.0328 73.3115 27.2787 73.3115 27.2787C73.3115 27.2787 71.082 24.918 68.5902 23.7377L69.9017 15.2131C75.2787 17.8361 78.6885 20.459 80.3935 22.9508C81.9672 25.3115 82.3607 28.3934 81.9672 32.1312L80.2623 43.8033V44.1311C79.8689 46.4262 80.2623 48.1967 81.3771 49.377C82.3607 50.6885 84 51.4754 86.2951 51.8689L85.1804 59.6066C83.0164 59.3443 81.2459 59.6066 79.7377 60.459C78.2951 61.2459 77.4426 62.9508 77.1148 65.3771L75.4754 77.3771H75.541ZM30.623 63.2787C31.2787 59.7377 30.164 57.0492 27.4754 55.2787C24.6558 53.4426 20.2623 52.1967 13.9017 51.4754L16.2623 38.0984C22.4918 39.4099 27.082 39.4099 30.3607 38.7541C33.6394 37.9017 35.3443 35.8689 35.8689 32.5902V32.1312L38.7541 15.4754C39.4098 11.8033 40.7214 9.24593 42.5574 7.93446C44.5246 6.62298 47.1476 6.36066 50.4263 7.08197C53.5082 7.73771 57.4426 9.18034 61.9672 11.4754L60.5246 20.6557C57.5738 19.541 55.4099 19.2131 54.0984 19.8033C52.7869 20.459 51.9345 21.7705 51.4754 24.0656L49.2459 38.4918C48.1312 44.7213 43.4754 47.6721 34.4263 47.4098L34.2951 48.0656C43.082 50.6885 46.5574 54.623 45.6394 60.5246V61.1803L43.2132 76.0656C42.8197 78.4918 43.2131 80.1967 44.2623 81.3115C45.3115 82.4262 47.541 82.6229 50.8197 82.4918L49.3115 92.3279C44.0656 93.2459 39.4754 93.6393 36.1968 93.1148C32.7869 92.6557 30.2951 91.541 28.9836 89.5738C27.4754 87.6066 27.0164 84.5902 27.6722 80.5902L30.623 63.3443V63.2787Z" fill="white"/>
</svg>
