<svg xmlns="http://www.w3.org/2000/svg" viewBox="0 0 214.9 63.2">
  <path fill="#FFF" d="M201.1 39.2s-3 3.8-6.7 0c-3.7-3.6-6.3 0-6.3 0l-8.8 17.4c-.3.9.3 1.9 1.3 2.2H210c.9-.3 1.5-1.2 1.3-2.2l-10.2-17.4zm13.6 16.5l-14.2-23.9v-14h1c3.4 0 3.4-5.3 0-5.3h-14.2c-3.4 0-3.4 5.3 0 5.3h.9v14l-12.3 23.9c-.8 2.8.9 5.8 3.8 6.5h31.4c2.7-.7 4.3-3.6 3.6-6.5zm-4.3 4.8H180c-1.9-.5-3-2.5-2.5-4.4l12.4-24.2V16h-2.7c-1.1 0-1.1-1.8 0-1.8h14.2c1.1 0 1.1 1.8 0 1.8h-2.7v15.8l14.1 24.3c.7 1.9-.5 3.9-2.4 4.4zM196.1 9.8c0 2.3 3.6 2.3 3.6 0-.1-2.3-3.6-2.3-3.6 0zm1.7-4.5c3.4 0 3.4-5.3 0-5.3s-3.4 5.3 0 5.3zm-7.1 4.5c2.3 0 2.3-3.6 0-3.6s-2.3 3.6 0 3.6z"/>
  <path fill="none" d="M113.5 30c2.2-1.3 3-4.4 1.9-6.7-.9-2-3.1-2.8-5.1-3.1-3-.5-6.3-.2-9.3-.2v11c3.7-.1 9.3.8 12.5-1 1.8-1.1-1.8 1 0 0zM107.9 39.9H101v13c3.9 0 9.9 1 13.3-1.2 2.8-1.8 3.6-6.4 1.6-9-1.7-2.4-5.3-2.8-8-2.8zM58.9 18.7c-.8 3-3 10.3-6.6 22.3h13.4c-2.2-7.5-5.1-14.8-6.8-22.3-.7 3 .6 2.7 0 0z"/>
  <path fill="#FFF" d="M11 10.9H0v51h32v-9H11M52.2 10.9l-18.1 51h11.7l3.7-12h18.7l3.7 12h11.7l-18.2-51H52.2zm.1 30c3.7-12 5.9-19.3 6.6-22.3 1.7 7.5 4.6 14.9 6.8 22.3H52.3zM119 35.3V35c6.7-1.2 9.2-8.8 7.6-14.7-2-7.1-9.5-8.9-16-9.2-6.8-.4-13.7-.1-20.5-.1v51h19.5c7.3-.1 15.3-2.1 18.1-9.7 2.5-7.4-.8-15.4-8.7-17zm-18-15.4c4.4 0 13.8-1.4 14.8 4.6 1.3 8-9.8 6.4-14.8 6.4v-11zm14 31.4c-3.3 2.8-9.9 1.7-14 1.7V40c3.1 0 6.4-.3 9.5.1 2.2.3 4.7 1 5.9 3.1 1.3 2.5.7 6.3-1.4 8.1-1.9 1.5 1.7-1.5 0 0zM164.2 37.3c-3.1-2.7-6.9-4.3-10.6-6.1-2.5-1.2-6-2.6-6.7-5.6-1-4.1 2.7-6.3 6.3-6.4 4.2-.1 8.3 1.5 12.1 3l3.5-8.5c-8.1-3.5-19.2-6.1-27-.5-7 5-7.4 15.5-1.5 21.5 3.2 3.3 7.6 4.9 11.6 6.9 3.2 1.6 7.4 3.9 6.4 8.2-2.3 9-18.1 1.6-23.1-.1v10.1c8 3.9 20.4 5.1 28-.3 7-5 7.8-16.4 1-22.2-3.2-2.6 3.2 2.7 0 0z"/>
</svg>
