<?xml version="1.0" encoding="utf-8"?>
<!-- Generator: Adobe Illustrator 19.0.0, SVG Export Plug-In . SVG Version: 6.00 Build 0)  -->
<svg version="1.1" id="Logo-Labs" xmlns="http://www.w3.org/2000/svg" xmlns:xlink="http://www.w3.org/1999/xlink" x="0px" y="0px"
	 viewBox="0 0 214.9 63.2" enable-background="new 0 0 214.9 63.2" xml:space="preserve">
<g id="logo-frask">
	<path id="XMLID_3_" fill="#39B54A" d="M201.1,39.2c0,0-3,3.8-6.7,0c-3.7-3.6-6.3,0-6.3,0l-8.8,17.4c-0.3,0.9,0.3,1.9,1.3,2.2h29.4
		c0.9-0.3,1.5-1.2,1.3-2.2L201.1,39.2z M214.7,55.7l-14.2-23.9v0l0-14h1c3.4,0,3.4-5.3,0-5.3h-14.2c-3.4,0-3.4,5.3,0,5.3h0.9l0,14
		l-12.3,23.9c-0.8,2.8,0.9,5.8,3.8,6.5h31.4C213.8,61.5,215.4,58.6,214.7,55.7z M210.4,60.5l-30.4,0c-1.9-0.5-3-2.5-2.5-4.4
		l12.4-24.2l0-15.9h-2.7c-1.1,0-1.1-1.8,0-1.8h14.2c1.1,0,1.1,1.8,0,1.8h-2.7l0,15.8l14.1,24.3C213.5,58,212.3,60,210.4,60.5z
		 M196.1,9.8c0,2.3,3.6,2.3,3.6,0C199.6,7.5,196.1,7.5,196.1,9.8z M197.8,5.3c3.4,0,3.4-5.3,0-5.3C194.4,0,194.4,5.3,197.8,5.3z
		 M190.7,9.8c2.3,0,2.3-3.6,0-3.6C188.4,6.2,188.4,9.8,190.7,9.8z"/>
</g>
<g id="logo-name">
	<path id="XMLID_17_" fill="none" d="M113.5,30c2.2-1.3,3-4.4,1.9-6.7c-0.9-2-3.1-2.8-5.1-3.1c-3-0.5-6.3-0.2-9.3-0.2v11
		C104.7,30.9,110.3,31.8,113.5,30C115.3,28.9,111.7,31,113.5,30z"/>
	<path id="XMLID_56_" fill="none" d="M107.9,39.9H101v13c3.9,0,9.9,1,13.3-1.2c2.8-1.8,3.6-6.4,1.6-9
		C114.2,40.3,110.6,39.9,107.9,39.9z"/>
	<path id="XMLID_57_" fill="none" d="M58.9,18.7c-0.8,3-3,10.3-6.6,22.3h13.4C63.5,33.5,60.6,26.2,58.9,18.7
		C58.2,21.7,59.5,21.4,58.9,18.7z"/>
	<polygon id="XMLID_58_" fill="#FF0000" points="11,10.9 0,10.9 0,61.9 32,61.9 32,52.9 11,52.9 	"/>
	<path id="XMLID_61_" fill="#FF0000" d="M52.2,10.9l-18.1,51h11.7l3.7-12h18.7l3.7,12h11.7l-18.2-51H52.2z M52.3,40.9
		c3.7-12,5.9-19.3,6.6-22.3c1.7,7.5,4.6,14.9,6.8,22.3H52.3z"/>
	<path id="XMLID_64_" fill="#FF0000" d="M119,35.3V35c6.7-1.2,9.2-8.8,7.6-14.7c-2-7.1-9.5-8.9-16-9.2c-6.8-0.4-13.7-0.1-20.5-0.1
		v51c6.5,0,13,0,19.5,0c7.3-0.1,15.3-2.1,18.1-9.7C130.2,44.9,126.9,36.9,119,35.3z M101,19.9c4.4,0,13.8-1.4,14.8,4.6
		c1.3,8-9.8,6.4-14.8,6.4V19.9z M115,51.3c-3.3,2.8-9.9,1.7-14,1.7v-13c3.1,0,6.4-0.3,9.5,0.1c2.2,0.3,4.7,1,5.9,3.1
		C117.7,45.7,117.1,49.5,115,51.3C113.1,52.8,116.7,49.8,115,51.3z"/>
	<path id="XMLID_66_" fill="#FF0000" d="M164.2,37.3c-3.1-2.7-6.9-4.3-10.6-6.1c-2.5-1.2-6-2.6-6.7-5.6c-1-4.1,2.7-6.3,6.3-6.4
		c4.2-0.1,8.3,1.5,12.1,3l3.5-8.5c-8.1-3.5-19.2-6.1-27-0.5c-7,5-7.4,15.5-1.5,21.5c3.2,3.3,7.6,4.9,11.6,6.9
		c3.2,1.6,7.4,3.9,6.4,8.2c-2.3,9-18.1,1.6-23.1-0.1v10.1c8,3.9,20.4,5.1,28-0.3C170.2,54.5,171,43.1,164.2,37.3
		C161,34.7,167.4,40,164.2,37.3z"/>
</g>
</svg>
