<svg id="logo_1" xmlns="http://www.w3.org/2000/svg" viewBox="-998 719 562 164">
  <style>
    .st0{fill:#FF4B39;} .st1{fill:#FFF;}
  </style>
  <path class="st0" d="M-998 724.8h152.5v152.5H-998V724.8z"/>
  <path class="st1" d="M-834.2 732.5h14c5.6 0 9.8 1 12.4 3.3 2.6 2.2 4 5.7 4 10.5 0 3.2-.8 5.8-2 8s-3.3 3.3-5.7 3.7v.4c3 .8 5.4 2.2 6.7 4.3 1.3 2 2 5 2 8.4 0 5-1.3 9-4 11.8s-6.3 4.2-11 4.2H-834l-.2-54.5zm9.6 22h4.7c2.2 0 3.7-.6 4.6-1.7s1.3-3 1.3-5.2-.6-4-1.6-5-2.6-1.3-4.7-1.3h-4.3v13.2zm0 8.5v15.3h5.2c2 0 3.7-.7 4.7-2 1-1.2 1.5-3.2 1.5-6 0-4.8-2-7.3-6.4-7.3h-5zm39.3 2.8V787h-10v-54.4h13.2c5.5 0 9.6 1.3 12.3 4s4 6.7 4 12.2c0 7-2.3 11.8-7 14.4l10.5 24h-11l-8.5-21.3-3.6-.2zm0-8.8h2.6c2.4 0 4-.7 5.2-2s1.5-3.3 1.5-6c0-2.8-.6-4.8-1.6-6-1-1-2.8-1.7-5.2-1.7h-2.6V757zm61.7-24.5V768c0 6.5-1.4 11.5-4.4 15s-7.2 5-12.7 5c-5.4 0-9.6-1.6-12.4-5-3-3.3-4.4-8.4-4.4-15v-35.4h10v36c0 7 2.3 10.3 7 10.3 2 0 3.7-1 5-2.8 1-1.7 1.6-4.3 1.6-7.6v-36h10.2zM-676 787h-12.4l-17-39.6h-.4c.6 3 1 6.2 1 9.7v30h-9.4v-54.4h12.4l16.7 39h.3c-.5-2.5-.7-5.6-.7-9.3v-29.7h9.4V787zm47-27.3c0 9-1.6 16-5 20.8-3.3 5-8.2 7.3-14.5 7.3s-11.2-2.4-14.5-7.3-5-12-5-21 1.6-16 5-20.6c3.3-5 8.2-7.4 14.6-7.4 6.3 0 11 2.4 14.5 7.3 3.7 4.8 5 11.7 5 20.7zm-28.6 0c0 6.2.8 11 2.4 14.2 1.5 3 3.8 4.8 7 4.8 6 0 9-6.4 9-19s-3-19.2-9-19.2c-3 0-5.4 1.6-7 5-1.6 3-2.4 8-2.4 14zm81.4 27.3l-3.2-13.8h-14l-3.3 13.8h-10l13.5-54.8h13.8l13.6 54.8h-10.4zm-5-22.7l-2.8-12.7c-.2-.8-.6-2.7-1-5.8-.7-3-1-5.2-1.2-6.2l-1.2 7c-.5 2.7-1.8 8.5-4 17.8h10.3zM-561 787v-54.5h10v45.7h14.2v9l-24.2-.2zm52.6-54.5h10.2L-511 787h-13l-12.6-54.5h10.2l7.2 33.4c.7 2.8 1.2 6.8 2 12 .4-4.4 1-8.5 2-12l6.8-33.5zm39.6 54.5h-24.6v-54.5h24.6v8.8h-14.4v13h13.4v8.8h-13.4v15.2h14.4v8.8zm32.8-15c0 5-1.2 9-3.8 11.8-2.6 2.7-6.3 4-11.2 4-4.8 0-8.8-1-12-2.7v-10c4 2.8 7.7 4 11.2 4 2 0 3.4-.5 4.4-1.5 1-1 1.4-2.5 1.4-4.4 0-1.7-.6-3.3-1.7-5-1-1.4-3-3-5.8-5-2.3-1.6-4-3.2-5.4-4.7-1-1.4-2-3.2-2.7-5-.7-1.8-1-4-1-6.4 0-4.8 1.3-8.5 4-11.2 2.5-2.8 6-4 10.4-4 4.2 0 8.2 1 12 3.4l-3.3 8-3.7-1.8c-1.3-.6-2.7-1-4.2-1-1.6 0-3 .7-3.8 1.7-1 1.2-1.3 2.7-1.3 4.5s.6 3.4 1.6 4.8c1 1.3 3 3 5.5 4.7 3.5 2.4 6 5 7.5 7.4 1.3 2.6 2 5.4 2 8.6zm-319.4 92.5h-2l-8-28-1.5-5.5-1 5-8 28.6h-2l-10-36h2.8l6.3 23.2.8 2.6.6 2.3.5 2c0 .7.2 1.3.3 2 .4-2.2 1.2-5.6 2.5-10.2l6.2-22h2.8l7.3 25c1 3 1.5 5.4 2 7 0-1 .4-2.4.8-3.7l7.6-28.4h2.6l-10.4 36zm36 0H-739v-36.2h19.7v2.3h-17.2v13.7h16.2v2.3h-16.2V862h17.2v2.5zm8.2-36.2h10c4.4 0 7.6.8 9.7 2.3s3.2 3.8 3.2 7c0 2-.7 3.7-2 5.2-1 1.4-3 2.3-5.5 2.7v.2c3 .4 5 1.3 6.4 2.8 1.3 1.4 2 3.3 2 5.8 0 3.3-1 6-3.3 7.6-2.2 1.7-5.4 2.6-9.4 2.6h-11.2v-36.3zm2.6 16.2h8c3.3 0 5.7-.6 7.4-1.7 1.5-1 2.3-3 2.3-5.4 0-2.4-.8-4-2.5-5.3s-4.3-1.5-7.7-1.5h-7.3v14zm0 2.2v15.6h8.5c6.6 0 10-2.7 10-8 0-5-3.6-7.6-10.7-7.6h-8zm70-.7c0 6-1.7 10.6-5 13.8-3 3.2-7.7 4.7-14 4.7h-8.7v-36.2h9.8c5.7 0 10 1.5 13.2 4.5 3 3 4.6 7.5 4.6 13.2zm-3 .2c0-5.2-1.2-9-3.8-11.7-2.7-2.6-6.5-4-11.6-4h-6.7v31.8h6c11 0 16.2-5.5 16.2-16zm31 18.3h-20v-36.2h20v2.3H-628v13.7h16.3v2.3H-628V862h17.3v2.5zm28-9.3c0 3-1 5.4-3.2 7.2-2.2 1.7-5.2 2.7-9 2.7-4.3 0-7.7-.4-10-1.3v-2.5c2.6 1 6 1.6 10 1.6 3 0 5.3-.7 7-2s2.6-3.2 2.6-5.4c0-1.3-.3-2.5-1-3.4s-1.4-1.7-2.8-2.5c-1.3-.8-3.2-1.5-5.7-2.4-3.7-1-6.2-2.6-7.6-4s-2-3.4-2-6 1-4.8 3-6.5 5-2.6 8.3-2.6c3.4 0 6.6.6 9.6 1.8l-1 2.2c-3-1.2-5.8-2-8.6-2-2.7 0-4.8.7-6.4 2-1.6 1-2.4 3-2.4 5 0 1.3.3 2.4.8 3.2s1.2 1.6 2.4 2.3c1.2.7 3 1.5 5.7 2.5 3 1 5 2 6.4 3 1.4 1 2.5 1.8 3 3 .7 1 1 2.5 1 4.2zm7.7 9.3v-36.2h2.6v36l-2.5.2zm27.2-18.2h13.3v16.5c-3.5 1.5-7.5 2.2-11.8 2.2-5.7 0-10-1.6-13-5-3.2-3-4.7-7.6-4.7-13.6 0-3.6.8-7 2.3-9.7 1.5-3 3.6-5 6.5-6.6s6-2.2 9.7-2.2c4 0 7.5.8 10.6 2.2l-1 2.3c-3.2-1.4-6.4-2.2-9.7-2.2-4.8 0-8.5 1.5-11.4 4.5-3 3-4.3 7-4.3 12 0 5.3 1.3 9.5 4 12 2.7 3 6.6 4.2 11.7 4.2 3.3 0 6-.5 8.5-1.4v-12.6h-11l.2-2.4zm48.5 18.2h-2.6l-21.3-32h-.2l.3 8.6v23.5h-2.4v-36.2h2.5l21.3 32h.2c-.2-3-.2-5.8-.2-8.5v-23.6h2.5v36.3zm30 0H-489v-36.2h19.8v2.3h-17.2v13.7h16.2v2.3h-16.2V862h17.2v2.5zm10.8-15.7v15.8h-2.5v-36.2h8.6c4.5 0 7.8 1 10 2.5s3 4 3 7.4c0 2.4-.6 4.5-1.8 6-1.2 1.7-3.2 3-5.8 3.7l9.8 16.5h-3l-9.5-15.8h-8.8zm0-2.3h7c3 0 5.3-.7 7-2s2.5-3.3 2.5-6c0-2.8-1-4.8-2.5-6s-4.3-2-8-2h-6v16zm-359.8-39.2c0 3.5-1 6-2.8 8s-4.6 2.6-8.2 2.6h-5v-21h5.6c3.3 0 5.8 1 7.6 2.6 1.8 1.7 2.7 4.4 2.7 7.7zm-1.5 0c0-3-.8-5.3-2.3-6.8s-3.8-2.3-6.8-2.3h-3.8v18.5h3.4c6.2 0 9.4-3.2 9.4-9.4zm17.7 10.5h-11.5V797h11.4v1.3h-10v8h9.4v1.3h-9.4v9h10v1.2zm16.2-5.3c0 1.7-.7 3.2-2 4-1 1.2-3 1.6-5 1.6-2.6 0-4.5-.2-5.8-.8v-1.4c1.5.7 3.4 1 5.7 1 1.8 0 3.2-.4 4.2-1 1-1 1.5-2 1.5-3.2 0-.8-.2-1.4-.5-2s-1-1-1.6-1.4c-.8-.4-1.8-1-3.3-1.3-2-1-3.6-1.6-4.4-2.5s-1.3-2-1.3-3.4.6-2.8 1.8-3.7c1.2-1 2.8-1.4 4.7-1.4 2 0 3.8.3 5.5 1l-.6 1.2c-1.6-.8-3.2-1-5-1-1.4 0-2.7.3-3.6 1s-1.3 1.7-1.3 3c0 .7.2 1.3.5 1.8s.8 1 1.3 1.3c.7.4 1.7 1 3.2 1.4 1.6.6 3 1 3.6 1.6 1 .6 1.4 1 1.8 1.8.6.8.8 1.5.8 2.5zm15.8 5.3h-11.4V797h11.4v1.3h-10v8h9.4v1.3h-9.4v9h10v1.2zm20 0h-1.5l-12.3-18.5V818h-1.3v-21h1.3l12.3 18.5V797h1.4v20.8zm18-20.8h1.6l-7.8 20.8h-1.2L-747 797h1.5l5.3 14.2c.8 2 1.3 3.7 1.6 5l1-3.4 5.8-15.8zm22 10.5c0 3.3-.8 6-2.4 7.8s-4 3-7 3c-2.8 0-5-1-6.8-3-1.6-2-2.5-4.6-2.5-8s1-5.8 2.5-7.7 4-3 7-3c2.8 0 5 1 6.8 3 1.7 2 2.5 4.6 2.5 8zm-17 0c0 3 .8 5.3 2 7 1.4 1.6 3.3 2.5 5.8 2.5s4.4-.8 5.7-2.4c1.3-1.6 2-4 2-7s-.7-5.4-2-7c-1.3-1.5-3.2-2.3-5.7-2.3s-4.4.8-5.7 2.4c-1.4 1.5-2 3.6-2 6.8zm21.8 10.3V797h1.4v19.5h10v1.3H-705zm27.4-20.8h1.6l-7.8 20.8h-1.3L-693 797h1.5l5.3 14.2c.8 2 1.3 3.7 1.6 5l1-3.4 5.8-15.8zm16 20.8H-673V797h11.5v1.3h-10v8h9.5v1.3h-9.4v9h10l-.2 1.2zm20.6-10.5c0 3.5-1 6-2.8 8s-4.5 2.6-8 2.6h-5v-21h5.5c3.3 0 5.8 1 7.6 2.6 2 1.7 2.7 4.4 2.7 7.7zm-1.7 0c0-3-.8-5.3-2.3-6.8s-3.7-2.3-6.7-2.3h-3.8v18.5h3.4c6.4 0 9.3-3.2 9.3-9.4zm24 .2c0 3.3-.8 6-2.4 7.8s-4 3-7 3-5.2-1-7-3c-1.5-2-2.4-4.6-2.4-8s1-5.8 2.5-7.7 4-3 7-3 5.2 1 7 3c1.5 2 2.4 4.6 2.4 8zm-17 0c0 3 .6 5.3 2 7 1.2 1.6 3 2.5 5.6 2.5s4.3-.8 5.6-2.4c1.3-1.6 2-4 2-7s-.7-5.4-2-7-3.2-2.3-5.7-2.3-4.5.8-5.8 2.4c-1.3 1.5-2 3.6-2 6.8zm23.3 1.3v9h-1.4V797h5c2.6 0 4.5.5 5.7 1.4 1 1 1.7 2.4 1.7 4.3 0 1.4-.4 2.6-1 3.5-1 1-2 1.6-3.4 2l5.6 9.7h-1.8l-5.4-9.2h-5.2zm0-1.3h4c1.7 0 3.2-.4 4-1 1-1 1.5-2 1.5-3.5 0-1.6-.4-2.8-1.3-3.4-1-.8-2.5-1-4.7-1h-3.4v9zm25 10.3h-1.5V797h11.6v1.3h-10v9h9.6v1.3h-9.5l-.2 9.2zm14.5-9v9h-1.3V797h5c2.6 0 4.5.5 5.7 1.4 1.2 1 1.8 2.4 1.8 4.3 0 1.4-.4 2.6-1 3.5-1 1-2 1.6-3.4 2l5.6 9.7h-1.7l-5.4-9.2h-5.2zm0-1.3h4c1.8 0 3.3-.4 4.2-1 1-1 1.4-2 1.4-3.5 0-1.6-.5-2.8-1.4-3.4-1-.8-2.5-1-4.7-1h-3.4v9zm33.6 0c0 3.3-1 6-2.5 7.8s-3.8 3-6.8 3-5.2-1-7-3c-1.5-2-2.4-4.6-2.4-8s1-5.8 2.5-7.7 4-3 7-3c2.8 0 5 1 6.8 3s2.6 4.6 2.6 8zm-16.8 0c0 3 .7 5.3 2 7 1.3 1.6 3.2 2.5 5.7 2.5s4.4-.8 5.7-2.4c1.3-1.6 2-4 2-7s-.7-5.4-2-7-3.2-2.3-5.7-2.3-4.4.8-5.7 2.4c-1.6 1.5-2 3.6-2 6.8zm36.8 10.3h-1.4l-12.3-18.5h-.2l.2 5V818h-1.4v-21h1.4l12.3 18.5V797h1.4v20.8zm11.4 0h-1.4v-19.5h-6.8V797h15v1.3h-6.8v19.5zm29 0h-11.4V797h11.4v1.3h-10v8h9.4v1.3h-9.4v9h10v1.2zm20 0h-1.5l-12.3-18.5h-.2l.2 5V818h-1.4v-21h1.4l12.3 18.5V797h1.4v20.8zm21.6-10.5c0 3.5-1 6-2.8 8s-4.5 2.6-8 2.6h-5v-21h5.5c3.3 0 5.8 1 7.6 2.6 1.8 1.7 2.6 4.4 2.6 7.7zm-1.5 0c0-3-.7-5.3-2.2-6.8s-3.7-2.3-6.7-2.3h-3.7v18.5h3.4c6 0 9.4-3.2 9.4-9.4zm-364 57.2l-2.8-3c-1.7 1.2-3 2-4 2.3l-3.7 1c-1.3.2-3 .3-4.6.3-3 0-5.5-.4-7.8-1.4-2.4-1-4-2.4-5.3-4.2-1.2-1.8-1.8-4-1.8-6.2 0-5 2.5-8.6 7.5-11.2-1-1.3-2-2.7-2.7-4.2s-1-3.2-1-5c0-3 1-5.4 3.4-7s5.4-2.8 9.5-2.8c4 0 7 1 9.2 2.6s3 4 3 7.2c0 2-.5 4-1.7 5.7-1 1.7-3 3.4-5.6 5l5.5 5.3c1.4-2 2.4-4.6 3-7.3h11.3c-.6 2.6-1.4 5.2-2.7 7.7-1.2 2.6-2.6 4.8-4 6.7l9 8.5h-14zm-18.6-12.2c0 1 .4 2 1.2 3 1 .7 2 1 3.3 1 1 0 2 0 2.8-.4s1.4-.7 1.8-1l-7-7.2c-1.5 1.2-2 2.7-2 4.5zm8.3-19.5c0-1-.3-1.5-.8-2-.6-.4-1.2-.6-2-.6s-1.4.2-2 .7-1 1-1 2c0 1.5 1 3 2.5 4.4 1-.6 2-1.3 2.4-2s1-1.7 1-2.6zm-69.5 10c-1 6-3 10.4-6.6 13.4-3.7 3-10 5.4-19.3 7l2.2-14.2c4.2-.5 7-1.5 8.6-3.2 1.6-1.5 2.6-3.8 3-7l3-18.5v-.6c.6-3.7 2-6.6 4.4-8.5 2.3-2 5.4-3 9-3v-.7c-7-2.5-10.3-7.7-9.3-15.6l2.6-18.3c.5-3 0-5.4-1-7.2-1-2-3.4-3.6-7.2-5.4l2-13c8.2 4 13.4 8 16 11.8 2.4 3.6 3 8.3 2.4 14l-2.6 17.8v.5c-.6 3.5 0 6.2 1.7 8 1.5 2 4 3.2 7.5 3.8l-1.7 11.8c-3.3-.4-6 0-8.3 1.3-2.2 1.2-3.5 3.8-4 7.5l-2.5 18.3zm-68.5-21.5c1-5.4-.7-9.5-4.8-12.2-4.3-2.8-11-4.7-20.7-5.8l3.6-20.4c9.5 2 16.5 2 21.5 1 5-1.3 7.6-4.4 8.4-9.4v-.7l4.4-25.4c1-5.6 3-9.5 5.8-11.5 3-2 7-2.4 12-1.3 4.7 1 10.7 3.2 17.6 6.7l-2.2 14c-4.5-1.7-7.8-2.2-9.8-1.3-2 1-3.3 3-4 6.5l-3.4 22c-1.7 9.5-8.8 14-22.6 13.6l-.2 1c13.4 4 18.7 10 17.3 19v1l-3.7 22.7c-.6 3.7 0 6.3 1.6 8s5 2 10 1.8l-2.3 15c-8 1.4-15 2-20 1.2-5.2-.7-9-2.4-11-5.4-2.3-3-3-7.6-2-13.7l4.5-26.3z"/>
</svg>
